<?xml version="1.0" encoding="UTF-8"?>
<svg xmlns="http://www.w3.org/2000/svg" width="872" height="296" viewBox="0 0 872 296" role="img" aria-label="RENOMA">
  <title>RENOMA</title>
  <desc>RENOMA horizontal wordmark — Manrope Medium, tracking 0.14em, anthracite, transparent background</desc>
    <path fill="#252422" transform="translate(44.800 205.600)" d="M25.440 0L11.200 0L11.200-115.200L56.720-115.200Q58.400-115.200 60.720-115.080Q63.040-114.960 65.200-114.560Q74.560-113.120 80.920-108.160Q87.280-103.200 90.480-95.640Q93.680-88.080 93.680-78.880Q93.680-65.520 86.720-55.720Q79.760-45.920 66.320-43.440L60.880-42.560L25.440-42.560L25.440 0M96.080 0L79.760 0L57.040-46.880L71.120-51.200L96.080 0M25.440-101.680L25.440-56.080L56.240-56.080Q57.760-56.080 59.720-56.240Q61.680-56.400 63.440-56.800Q68.960-58.080 72.440-61.480Q75.920-64.880 77.520-69.480Q79.120-74.080 79.120-78.880Q79.120-83.680 77.520-88.280Q75.920-92.880 72.440-96.320Q68.960-99.760 63.440-100.960Q61.680-101.440 59.720-101.560Q57.760-101.680 56.240-101.680"/>
    <path fill="#252422" transform="translate(169.680 205.600)" d="M84 0L11.200 0L11.200-115.200L84-115.200L84-101.680L25.440-101.680L25.440-65.600L74.400-65.600L74.400-52.080L25.440-52.080L25.440-13.520L84-13.520"/>
    <path fill="#252422" transform="translate(284.080 205.600)" d="M25.600 0L11.200 0L11.200-115.200L25.600-115.200L85.680-25.200L85.680-115.200L100.080-115.200L100.080 0L85.680 0L25.600-90.080"/>
    <path fill="#252422" transform="translate(417.760 205.600)" d="M58.560 2.400Q41.360 2.400 29.360-5.200Q17.360-12.800 11.080-26.320Q4.800-39.840 4.800-57.600Q4.800-75.360 11.080-88.880Q17.360-102.400 29.360-110Q41.360-117.600 58.560-117.600Q75.840-117.600 87.840-110Q99.840-102.400 106.080-88.880Q112.320-75.360 112.320-57.600Q112.320-39.840 106.080-26.320Q99.840-12.800 87.840-5.200Q75.840 2.400 58.560 2.400M58.560-11.200Q71.440-11.120 80.040-17Q88.640-22.880 92.920-33.360Q97.200-43.840 97.200-57.600Q97.200-71.440 92.920-81.840Q88.640-92.240 80.040-98.080Q71.440-103.920 58.560-104Q45.680-104.080 37.160-98.240Q28.640-92.400 24.320-81.920Q20-71.440 19.920-57.600Q19.840-43.840 24.160-33.440Q28.480-23.040 37.080-17.160Q45.680-11.280 58.560-11.200"/>
    <path fill="#252422" transform="translate(557.280 205.600)" d="M24.720 0L11.200 0L11.200-115.200L24.160-115.200L67.680-23.440L110.960-115.200L124.080-115.200L124.080-0.080L110.560-0.080L110.560-83.920L71.440 0L63.840 0L24.720-83.920"/>
    <path fill="#252422" transform="translate(714.960 205.600)" d="M18 0L3.200 0L41.760-115.200L61.600-115.200L100.160 0L85.360 0L49.280-106.880L53.760-106.880L18 0M81.600-26.960L21.760-26.960L21.760-40.320L81.600-40.320"/>
</svg>
