<?xml version="1.0" encoding="UTF-8"?>
<svg xmlns="http://www.w3.org/2000/svg" width="777" height="307" viewBox="0 0 777 307" role="img" aria-label="RENOMA — Wir stehen auf Ihrer Seite.">
  <title>RENOMA — Wir stehen auf Ihrer Seite.</title>
  <desc>RENOMA wordmark with tagline — Manrope Medium / Regular, anthracite / muted, transparent background</desc>
    <path fill="#252422" transform="translate(46.585 179.900)" d="M22.260 0L9.800 0L9.800-100.800L49.630-100.800Q51.100-100.800 53.130-100.695Q55.160-100.590 57.050-100.240Q65.240-98.980 70.805-94.640Q76.370-90.300 79.170-83.685Q81.970-77.070 81.970-69.020Q81.970-57.330 75.880-48.755Q69.790-40.180 58.030-38.010L53.270-37.240L22.260-37.240L22.260 0M84.070 0L69.790 0L49.910-41.020L62.230-44.800L84.070 0M22.260-88.970L22.260-49.070L49.210-49.070Q50.540-49.070 52.255-49.210Q53.970-49.350 55.510-49.700Q60.340-50.820 63.385-53.795Q66.430-56.770 67.830-60.795Q69.230-64.820 69.230-69.020Q69.230-73.220 67.830-77.245Q66.430-81.270 63.385-84.280Q60.340-87.290 55.510-88.340Q53.970-88.760 52.255-88.865Q50.540-88.970 49.210-88.970"/>
    <path fill="#252422" transform="translate(155.855 179.900)" d="M73.500 0L9.800 0L9.800-100.800L73.500-100.800L73.500-88.970L22.260-88.970L22.260-57.400L65.100-57.400L65.100-45.570L22.260-45.570L22.260-11.830L73.500-11.830"/>
    <path fill="#252422" transform="translate(255.955 179.900)" d="M22.400 0L9.800 0L9.800-100.800L22.400-100.800L74.970-22.050L74.970-100.800L87.570-100.800L87.570 0L74.970 0L22.400-78.820"/>
    <path fill="#252422" transform="translate(372.925 179.900)" d="M51.240 2.100Q36.190 2.100 25.690-4.550Q15.190-11.200 9.695-23.030Q4.200-34.860 4.200-50.400Q4.200-65.940 9.695-77.770Q15.190-89.600 25.690-96.250Q36.190-102.900 51.240-102.900Q66.360-102.900 76.860-96.250Q87.360-89.600 92.820-77.770Q98.280-65.940 98.280-50.400Q98.280-34.860 92.820-23.030Q87.360-11.200 76.860-4.550Q66.360 2.100 51.240 2.100M51.240-9.800Q62.510-9.730 70.035-14.875Q77.560-20.020 81.305-29.190Q85.050-38.360 85.050-50.400Q85.050-62.510 81.305-71.610Q77.560-80.710 70.035-85.820Q62.510-90.930 51.240-91Q39.970-91.070 32.515-85.960Q25.060-80.850 21.280-71.680Q17.500-62.510 17.430-50.400Q17.360-38.360 21.140-29.260Q24.920-20.160 32.445-15.015Q39.970-9.870 51.240-9.800"/>
    <path fill="#252422" transform="translate(495.005 179.900)" d="M21.630 0L9.800 0L9.800-100.800L21.140-100.800L59.220-20.510L97.090-100.800L108.570-100.800L108.570-0.070L96.740-0.070L96.740-73.430L62.510 0L55.860 0L21.630-73.430"/>
    <path fill="#252422" transform="translate(632.975 179.900)" d="M15.750 0L2.800 0L36.540-100.800L53.900-100.800L87.640 0L74.690 0L43.120-93.520L47.040-93.520L15.750 0M71.400-23.590L19.040-23.590L19.040-35.280L71.400-35.280"/>
    <path fill="#5a564f" transform="translate(175.119 236.460)" d="M10.746 0L8.082 0L0.594-25.920L3.348-25.920L9.414-4.518L15.444-25.902L18.216-25.920L24.282-4.518L30.312-25.920L33.084-25.920L25.614 0L22.950 0L16.830-21.258"/>
    <path fill="#5a564f" transform="translate(208.797 236.460)" d="M5.526-23.130L2.880-23.130L2.880-26.100L5.526-26.100L5.526-23.130M5.526 0L2.880 0L2.880-19.440L5.526-19.440"/>
    <path fill="#5a564f" transform="translate(217.203 236.460)" d="M5.166 0L2.520 0L2.520-19.440L4.896-19.440L4.896-14.760L4.428-15.372Q4.752-16.236 5.274-16.965Q5.796-17.694 6.408-18.162Q7.164-18.828 8.172-19.179Q9.180-19.530 10.206-19.593Q11.232-19.656 12.078-19.440L12.078-16.956Q11.016-17.226 9.756-17.082Q8.496-16.938 7.434-16.074Q6.462-15.318 5.976-14.265Q5.490-13.212 5.328-12.033Q5.166-10.854 5.166-9.702"/>
    <path fill="#5a564f" transform="translate(230.181 236.460)" d=""/>
    <path fill="#5a564f" transform="translate(237.381 236.460)" d="M9.774 0.522Q6.354 0.522 4.149-0.954Q1.944-2.430 1.440-5.058L4.140-5.508Q4.572-3.852 6.111-2.871Q7.650-1.890 9.918-1.890Q12.132-1.890 13.410-2.817Q14.688-3.744 14.688-5.346Q14.688-6.246 14.283-6.813Q13.878-7.380 12.636-7.866Q11.394-8.352 8.928-9.018Q6.282-9.738 4.788-10.458Q3.294-11.178 2.664-12.123Q2.034-13.068 2.034-14.436Q2.034-16.092 2.970-17.343Q3.906-18.594 5.562-19.287Q7.218-19.980 9.414-19.980Q11.610-19.980 13.347-19.269Q15.084-18.558 16.146-17.280Q17.208-16.002 17.406-14.310L14.706-13.824Q14.436-15.534 13.005-16.533Q11.574-17.532 9.378-17.568Q7.308-17.622 6.012-16.785Q4.716-15.948 4.716-14.562Q4.716-13.788 5.184-13.239Q5.652-12.690 6.885-12.204Q8.118-11.718 10.404-11.142Q13.086-10.458 14.616-9.702Q16.146-8.946 16.794-7.920Q17.442-6.894 17.442-5.382Q17.442-2.628 15.399-1.053Q13.356 0.522 9.774 0.522"/>
    <path fill="#5a564f" transform="translate(256.281 236.460)" d="M13.104-2.322L13.104 0Q11.466 0.342 9.873 0.270Q8.280 0.198 7.029-0.414Q5.778-1.026 5.130-2.322Q4.608-3.402 4.563-4.509Q4.518-5.616 4.518-7.038L4.518-24.840L7.146-24.840L7.146-7.146Q7.146-5.922 7.173-5.103Q7.200-4.284 7.542-3.654Q8.190-2.448 9.603-2.214Q11.016-1.980 13.104-2.322M13.104-17.172L0.360-17.172L0.360-19.440L13.104-19.440"/>
    <path fill="#5a564f" transform="translate(270.699 236.460)" d="M10.746 0.540Q7.902 0.540 5.823-0.720Q3.744-1.980 2.592-4.266Q1.440-6.552 1.440-9.630Q1.440-12.816 2.574-15.138Q3.708-17.460 5.769-18.720Q7.830-19.980 10.638-19.980Q13.518-19.980 15.552-18.657Q17.586-17.334 18.630-14.868Q19.674-12.402 19.584-8.982L16.884-8.982L16.884-9.918Q16.812-13.698 15.255-15.624Q13.698-17.550 10.710-17.550Q7.578-17.550 5.913-15.516Q4.248-13.482 4.248-9.720Q4.248-6.048 5.913-4.023Q7.578-1.998 10.638-1.998Q12.726-1.998 14.283-2.961Q15.840-3.924 16.740-5.742L19.206-4.788Q18.054-2.250 15.813-0.855Q13.572 0.540 10.746 0.540M18.162-8.982L3.312-8.982L3.312-11.196L18.162-11.196"/>
    <path fill="#5a564f" transform="translate(291.741 236.460)" d="M19.224 0L16.560 0L16.560-9.918Q16.560-11.538 16.254-12.897Q15.948-14.256 15.273-15.273Q14.598-16.290 13.527-16.848Q12.456-17.406 10.926-17.406Q9.522-17.406 8.451-16.920Q7.380-16.434 6.651-15.525Q5.922-14.616 5.544-13.320Q5.166-12.024 5.166-10.368L3.294-10.782Q3.294-13.770 4.338-15.804Q5.382-17.838 7.218-18.882Q9.054-19.926 11.430-19.926Q13.176-19.926 14.481-19.386Q15.786-18.846 16.695-17.928Q17.604-17.010 18.162-15.831Q18.720-14.652 18.972-13.329Q19.224-12.006 19.224-10.692L19.224 0M5.166 0L2.502 0L2.502-25.920L4.896-25.920L4.896-11.286L5.166-11.286"/>
    <path fill="#5a564f" transform="translate(313.125 236.460)" d="M10.746 0.540Q7.902 0.540 5.823-0.720Q3.744-1.980 2.592-4.266Q1.440-6.552 1.440-9.630Q1.440-12.816 2.574-15.138Q3.708-17.460 5.769-18.720Q7.830-19.980 10.638-19.980Q13.518-19.980 15.552-18.657Q17.586-17.334 18.630-14.868Q19.674-12.402 19.584-8.982L16.884-8.982L16.884-9.918Q16.812-13.698 15.255-15.624Q13.698-17.550 10.710-17.550Q7.578-17.550 5.913-15.516Q4.248-13.482 4.248-9.720Q4.248-6.048 5.913-4.023Q7.578-1.998 10.638-1.998Q12.726-1.998 14.283-2.961Q15.840-3.924 16.740-5.742L19.206-4.788Q18.054-2.250 15.813-0.855Q13.572 0.540 10.746 0.540M18.162-8.982L3.312-8.982L3.312-11.196L18.162-11.196"/>
    <path fill="#5a564f" transform="translate(334.167 236.460)" d="M19.224 0L16.560 0L16.560-9.918Q16.560-11.538 16.254-12.897Q15.948-14.256 15.273-15.273Q14.598-16.290 13.527-16.848Q12.456-17.406 10.926-17.406Q9.522-17.406 8.451-16.920Q7.380-16.434 6.651-15.525Q5.922-14.616 5.544-13.320Q5.166-12.024 5.166-10.368L3.294-10.782Q3.294-13.770 4.338-15.804Q5.382-17.838 7.218-18.882Q9.054-19.926 11.430-19.926Q13.176-19.926 14.481-19.386Q15.786-18.846 16.695-17.928Q17.604-17.010 18.162-15.831Q18.720-14.652 18.972-13.329Q19.224-12.006 19.224-10.692L19.224 0M5.166 0L2.502 0L2.502-19.440L4.896-19.440L4.896-14.652L5.166-14.652"/>
    <path fill="#5a564f" transform="translate(355.551 236.460)" d=""/>
    <path fill="#5a564f" transform="translate(362.751 236.460)" d="M8.082 0.540Q5.886 0.540 4.401-0.252Q2.916-1.044 2.178-2.358Q1.440-3.672 1.440-5.220Q1.440-6.804 2.079-7.929Q2.718-9.054 3.825-9.774Q4.932-10.494 6.390-10.872Q7.866-11.232 9.657-11.511Q11.448-11.790 13.167-11.997Q14.886-12.204 16.182-12.402L15.246-11.826Q15.300-14.706 14.130-16.092Q12.960-17.478 10.062-17.478Q8.064-17.478 6.687-16.578Q5.310-15.678 4.752-13.734L2.178-14.490Q2.844-17.100 4.860-18.540Q6.876-19.980 10.098-19.980Q12.762-19.980 14.625-18.981Q16.488-17.982 17.262-16.092Q17.622-15.246 17.730-14.202Q17.838-13.158 17.838-12.078L17.838 0L15.480 0L15.480-4.878L16.164-4.590Q15.174-2.088 13.086-0.774Q10.998 0.540 8.082 0.540M8.388-1.746Q10.242-1.746 11.628-2.412Q13.014-3.078 13.860-4.239Q14.706-5.400 14.958-6.858Q15.174-7.794 15.192-8.919Q15.210-10.044 15.210-10.602L16.218-10.080Q14.868-9.900 13.293-9.720Q11.718-9.540 10.197-9.306Q8.676-9.072 7.452-8.748Q6.624-8.514 5.850-8.091Q5.076-7.668 4.581-6.966Q4.086-6.264 4.086-5.220Q4.086-4.374 4.509-3.582Q4.932-2.790 5.877-2.268Q6.822-1.746 8.388-1.746"/>
    <path fill="#5a564f" transform="translate(382.749 236.460)" d="M9.954 0.486Q8.208 0.486 6.903-0.054Q5.598-0.594 4.689-1.512Q3.780-2.430 3.222-3.609Q2.664-4.788 2.412-6.111Q2.160-7.434 2.160-8.748L2.160-19.440L4.824-19.440L4.824-9.522Q4.824-7.920 5.130-6.552Q5.436-5.184 6.111-4.167Q6.786-3.150 7.857-2.592Q8.928-2.034 10.458-2.034Q11.862-2.034 12.933-2.520Q14.004-3.006 14.733-3.915Q15.462-4.824 15.840-6.129Q16.218-7.434 16.218-9.072L18.090-8.658Q18.090-5.670 17.046-3.636Q16.002-1.602 14.166-0.558Q12.330 0.486 9.954 0.486M18.864 0L16.488 0L16.488-4.788L16.218-4.788L16.218-19.440L18.864-19.440"/>
    <path fill="#5a564f" transform="translate(404.133 236.460)" d="M7.092 0L4.446 0L4.446-20.880Q4.446-21.636 4.527-22.374Q4.608-23.112 4.860-23.787Q5.112-24.462 5.652-25.038Q6.246-25.686 6.948-25.983Q7.650-26.280 8.415-26.370Q9.180-26.460 9.918-26.460L12.402-26.460L12.402-24.228L10.098-24.228Q8.586-24.228 7.839-23.490Q7.092-22.752 7.092-21.168L7.092 0M12.402-17.172L1.080-17.172L1.080-19.440L12.402-19.440"/>
    <path fill="#5a564f" transform="translate(416.895 236.460)" d=""/>
    <path fill="#5a564f" transform="translate(424.095 236.460)" d="M5.526 0L2.880 0L2.880-25.920L5.526-25.920"/>
    <path fill="#5a564f" transform="translate(432.501 236.460)" d="M19.224 0L16.560 0L16.560-9.918Q16.560-11.538 16.254-12.897Q15.948-14.256 15.273-15.273Q14.598-16.290 13.527-16.848Q12.456-17.406 10.926-17.406Q9.522-17.406 8.451-16.920Q7.380-16.434 6.651-15.525Q5.922-14.616 5.544-13.320Q5.166-12.024 5.166-10.368L3.294-10.782Q3.294-13.770 4.338-15.804Q5.382-17.838 7.218-18.882Q9.054-19.926 11.430-19.926Q13.176-19.926 14.481-19.386Q15.786-18.846 16.695-17.928Q17.604-17.010 18.162-15.831Q18.720-14.652 18.972-13.329Q19.224-12.006 19.224-10.692L19.224 0M5.166 0L2.502 0L2.502-25.920L4.896-25.920L4.896-11.286L5.166-11.286"/>
    <path fill="#5a564f" transform="translate(453.885 236.460)" d="M5.166 0L2.520 0L2.520-19.440L4.896-19.440L4.896-14.760L4.428-15.372Q4.752-16.236 5.274-16.965Q5.796-17.694 6.408-18.162Q7.164-18.828 8.172-19.179Q9.180-19.530 10.206-19.593Q11.232-19.656 12.078-19.440L12.078-16.956Q11.016-17.226 9.756-17.082Q8.496-16.938 7.434-16.074Q6.462-15.318 5.976-14.265Q5.490-13.212 5.328-12.033Q5.166-10.854 5.166-9.702"/>
    <path fill="#5a564f" transform="translate(466.863 236.460)" d="M10.746 0.540Q7.902 0.540 5.823-0.720Q3.744-1.980 2.592-4.266Q1.440-6.552 1.440-9.630Q1.440-12.816 2.574-15.138Q3.708-17.460 5.769-18.720Q7.830-19.980 10.638-19.980Q13.518-19.980 15.552-18.657Q17.586-17.334 18.630-14.868Q19.674-12.402 19.584-8.982L16.884-8.982L16.884-9.918Q16.812-13.698 15.255-15.624Q13.698-17.550 10.710-17.550Q7.578-17.550 5.913-15.516Q4.248-13.482 4.248-9.720Q4.248-6.048 5.913-4.023Q7.578-1.998 10.638-1.998Q12.726-1.998 14.283-2.961Q15.840-3.924 16.740-5.742L19.206-4.788Q18.054-2.250 15.813-0.855Q13.572 0.540 10.746 0.540M18.162-8.982L3.312-8.982L3.312-11.196L18.162-11.196"/>
    <path fill="#5a564f" transform="translate(487.905 236.460)" d="M5.166 0L2.520 0L2.520-19.440L4.896-19.440L4.896-14.760L4.428-15.372Q4.752-16.236 5.274-16.965Q5.796-17.694 6.408-18.162Q7.164-18.828 8.172-19.179Q9.180-19.530 10.206-19.593Q11.232-19.656 12.078-19.440L12.078-16.956Q11.016-17.226 9.756-17.082Q8.496-16.938 7.434-16.074Q6.462-15.318 5.976-14.265Q5.490-13.212 5.328-12.033Q5.166-10.854 5.166-9.702"/>
    <path fill="#5a564f" transform="translate(500.883 236.460)" d=""/>
    <path fill="#5a564f" transform="translate(508.083 236.460)" d="M11.520 0.540Q8.802 0.540 6.633-0.369Q4.464-1.278 3.051-2.952Q1.638-4.626 1.206-6.930L3.906-7.380Q4.554-4.860 6.642-3.429Q8.730-1.998 11.628-1.998Q13.536-1.998 15.048-2.601Q16.560-3.204 17.424-4.320Q18.288-5.436 18.288-6.966Q18.288-7.974 17.928-8.685Q17.568-9.396 16.974-9.864Q16.380-10.332 15.678-10.647Q14.976-10.962 14.310-11.160L7.740-13.122Q6.552-13.464 5.544-13.995Q4.536-14.526 3.789-15.273Q3.042-16.020 2.628-17.028Q2.214-18.036 2.214-19.332Q2.214-21.528 3.366-23.130Q4.518-24.732 6.516-25.596Q8.514-26.460 11.070-26.442Q13.662-26.442 15.705-25.524Q17.748-24.606 19.080-22.905Q20.412-21.204 20.844-18.882L18.072-18.378Q17.802-20.070 16.830-21.312Q15.858-22.554 14.355-23.229Q12.852-23.904 11.052-23.922Q9.306-23.922 7.947-23.337Q6.588-22.752 5.796-21.744Q5.004-20.736 5.004-19.440Q5.004-18.126 5.733-17.334Q6.462-16.542 7.533-16.092Q8.604-15.642 9.612-15.354L14.688-13.860Q15.480-13.644 16.551-13.239Q17.622-12.834 18.639-12.087Q19.656-11.340 20.322-10.134Q20.988-8.928 20.988-7.074Q20.988-5.274 20.277-3.852Q19.566-2.430 18.279-1.458Q16.992-0.486 15.273 0.027Q13.554 0.540 11.520 0.540"/>
    <path fill="#5a564f" transform="translate(530.277 236.460)" d="M10.746 0.540Q7.902 0.540 5.823-0.720Q3.744-1.980 2.592-4.266Q1.440-6.552 1.440-9.630Q1.440-12.816 2.574-15.138Q3.708-17.460 5.769-18.720Q7.830-19.980 10.638-19.980Q13.518-19.980 15.552-18.657Q17.586-17.334 18.630-14.868Q19.674-12.402 19.584-8.982L16.884-8.982L16.884-9.918Q16.812-13.698 15.255-15.624Q13.698-17.550 10.710-17.550Q7.578-17.550 5.913-15.516Q4.248-13.482 4.248-9.720Q4.248-6.048 5.913-4.023Q7.578-1.998 10.638-1.998Q12.726-1.998 14.283-2.961Q15.840-3.924 16.740-5.742L19.206-4.788Q18.054-2.250 15.813-0.855Q13.572 0.540 10.746 0.540M18.162-8.982L3.312-8.982L3.312-11.196L18.162-11.196"/>
    <path fill="#5a564f" transform="translate(551.319 236.460)" d="M5.526-23.130L2.880-23.130L2.880-26.100L5.526-26.100L5.526-23.130M5.526 0L2.880 0L2.880-19.440L5.526-19.440"/>
    <path fill="#5a564f" transform="translate(559.725 236.460)" d="M13.104-2.322L13.104 0Q11.466 0.342 9.873 0.270Q8.280 0.198 7.029-0.414Q5.778-1.026 5.130-2.322Q4.608-3.402 4.563-4.509Q4.518-5.616 4.518-7.038L4.518-24.840L7.146-24.840L7.146-7.146Q7.146-5.922 7.173-5.103Q7.200-4.284 7.542-3.654Q8.190-2.448 9.603-2.214Q11.016-1.980 13.104-2.322M13.104-17.172L0.360-17.172L0.360-19.440L13.104-19.440"/>
    <path fill="#5a564f" transform="translate(574.143 236.460)" d="M10.746 0.540Q7.902 0.540 5.823-0.720Q3.744-1.980 2.592-4.266Q1.440-6.552 1.440-9.630Q1.440-12.816 2.574-15.138Q3.708-17.460 5.769-18.720Q7.830-19.980 10.638-19.980Q13.518-19.980 15.552-18.657Q17.586-17.334 18.630-14.868Q19.674-12.402 19.584-8.982L16.884-8.982L16.884-9.918Q16.812-13.698 15.255-15.624Q13.698-17.550 10.710-17.550Q7.578-17.550 5.913-15.516Q4.248-13.482 4.248-9.720Q4.248-6.048 5.913-4.023Q7.578-1.998 10.638-1.998Q12.726-1.998 14.283-2.961Q15.840-3.924 16.740-5.742L19.206-4.788Q18.054-2.250 15.813-0.855Q13.572 0.540 10.746 0.540M18.162-8.982L3.312-8.982L3.312-11.196L18.162-11.196"/>
    <path fill="#5a564f" transform="translate(595.185 236.460)" d="M6.102 0L3.024 0L3.024-3.078L6.102-3.078"/>
</svg>
