<?xml version="1.0" encoding="UTF-8"?>
<svg xmlns="http://www.w3.org/2000/svg" width="1000" height="1000" viewBox="0 0 1000 1000" role="img" aria-label="RENOMA">
  <title>RENOMA</title>
  <desc>RENOMA wordmark on warm-white — Manrope Medium, tracking 0.14em, anthracite #252422</desc>
  <rect width="1000" height="1000" fill="#f7f4ee"/>
    <path fill="#252422" transform="translate(211.814 542.480)" d="M18.762 0L8.260 0L8.260-84.960L41.831-84.960Q43.070-84.960 44.781-84.872Q46.492-84.783 48.085-84.488Q54.988-83.426 59.679-79.768Q64.369-76.110 66.729-70.535Q69.089-64.959 69.089-58.174Q69.089-48.321 63.956-41.094Q58.823-33.866 48.911-32.037L44.899-31.388L18.762-31.388L18.762 0M70.859 0L58.823 0L42.067-34.574L52.451-37.760L70.859 0M18.762-74.989L18.762-41.359L41.477-41.359Q42.598-41.359 44.044-41.477Q45.489-41.595 46.787-41.890Q50.858-42.834 53.425-45.342Q55.991-47.849 57.171-51.242Q58.351-54.634 58.351-58.174Q58.351-61.714 57.171-65.107Q55.991-68.499 53.425-71.036Q50.858-73.573 46.787-74.458Q45.489-74.812 44.044-74.901Q42.598-74.989 41.477-74.989"/>
    <path fill="#252422" transform="translate(303.913 542.480)" d="M61.950 0L8.260 0L8.260-84.960L61.950-84.960L61.950-74.989L18.762-74.989L18.762-48.380L54.870-48.380L54.870-38.409L18.762-38.409L18.762-9.971L61.950-9.971"/>
    <path fill="#252422" transform="translate(388.283 542.480)" d="M18.880 0L8.260 0L8.260-84.960L18.880-84.960L63.189-18.585L63.189-84.960L73.809-84.960L73.809 0L63.189 0L18.880-66.434"/>
    <path fill="#252422" transform="translate(486.872 542.480)" d="M43.188 1.770Q30.503 1.770 21.653-3.835Q12.803-9.440 8.172-19.411Q3.540-29.382 3.540-42.480Q3.540-55.578 8.172-65.549Q12.803-75.520 21.653-81.125Q30.503-86.730 43.188-86.730Q55.932-86.730 64.782-81.125Q73.632-75.520 78.234-65.549Q82.836-55.578 82.836-42.480Q82.836-29.382 78.234-19.411Q73.632-9.440 64.782-3.835Q55.932 1.770 43.188 1.770M43.188-8.260Q52.687-8.201 59.030-12.538Q65.372-16.874 68.529-24.603Q71.685-32.332 71.685-42.480Q71.685-52.687 68.529-60.357Q65.372-68.027 59.030-72.334Q52.687-76.641 43.188-76.700Q33.689-76.759 27.406-72.452Q21.122-68.145 17.936-60.416Q14.750-52.687 14.691-42.480Q14.632-32.332 17.818-24.662Q21.004-16.992 27.347-12.655Q33.689-8.319 43.188-8.260"/>
    <path fill="#252422" transform="translate(589.768 542.480)" d="M18.231 0L8.260 0L8.260-84.960L17.818-84.960L49.914-17.287L81.833-84.960L91.509-84.960L91.509-0.059L81.538-0.059L81.538-61.891L52.687 0L47.082 0L18.231-61.891"/>
    <path fill="#252422" transform="translate(706.058 542.480)" d="M13.275 0L2.360 0L30.798-84.960L45.430-84.960L73.868 0L62.953 0L36.344-78.824L39.648-78.824L13.275 0M60.180-19.883L16.048-19.883L16.048-29.736L60.180-29.736"/>
</svg>
